<?xml version="1.0" encoding="UTF-8" standalone="no"?>
<!-- Created manually by Carol Hamer (with some assistance from Inkscape to generate paths) -->
<svg width="240" height="320" viewBox="0 0 480 640" stroke-miterlimit="2" 
    xmlns="http://www.w3.org/2000/svg" xmlns:xlink="http://www.w3.org/1999/xlink" 
    xml:space="preserve" version="1.1" baseProfile="tiny">
  <defs>
    <g id="mainhull">
      <!-- the basic shape of the outer hull of both the rocket and its engines -->
      <path fill="#666666" stroke="#000000"  
         d="M 102.94913,233.23945 
            C 92.641524,327.40192 128.53432,437.75419 154.6246,540.01215 
            C 178.17206,550.92937 197.5947,557.08734 226.0811,556.61989 
            C 251.382,557.11835 274.03246,549.86652 297.16791,540.01215 
            C 323.25819,437.75419 356.8766,336.10688 348.84338,233.23945 
            C 340.81015,130.37202 284.27986,89.162454 226.07577,37.878232 
            C 158.44358,89.245831 113.25675,139.07699 102.94913,233.23945 z"
         />
      <path fill="#bbbbbb" stroke="#000000"
         d="M 153.99244,233.93746 
            C 152.89743,308.1412 174.55661,455.16902 188.50074,552.6608 
            C 199.86064,555.50651 211.8379,556.92914 226.0811,556.69541 
            C 251.382,557.19387 274.03246,549.94205 297.16791,540.08768 
            C 323.25819,437.82971 356.8766,336.18241 348.84338,233.31498 
            C 340.81015,130.44755 284.27986,89.237979 226.07577,37.953751 
            C 178.36292,81.851599 155.1058,158.48903 153.99244,233.93746 z"
         />
     </g>
     <!-- the flames coming out of the engine are defined separately -->
     <!-- because they move independently -->
     <g id="flame1">
       <path fill="#de422d" stroke="#000000"  
          d="M 44.285715,0.93361156
             C 34.850224,2.1830519 21.583854,5.9982466 14.285715,14.50504
             C 6.9875754,23.011833 5.382605,35.920611 7.142857,50.219325
             C 8.903109,64.518038 7.1428573,73.790751 7.1428573,73.790751
             C 7.1428573,73.790751 21.153463,53.520997 35,54.50504
             C 48.846537,55.489083 47.857144,178.79075 47.857144,178.79075
             C 47.857144,178.79075 48.276474,87.742027 65.714286,82.362182
             C 83.152098,76.982337 91.428577,153.79076 88.571427,142.36218
             C 85.714287,130.93361 87.029909,74.942848 92.857143,60.933611
             C 98.938578,46.313251 101.27236,36.504612 98.571429,28.076468
             C 95.870503,19.648324 87.807944,6.993361 80.714286,4.5050398
             C 73.620628,2.0167188 53.721206,-0.31582874 44.285715,0.93361156 z"
         />
     </g>
     <g id="flame2">
       <path fill="#f36a1b" stroke="#000000"  
          d="M 44.285715,7.362183
             C 34.850224,8.6116233 23.012425,12.426818 15.714286,20.933611
             C 8.4161468,29.440404 10.382605,38.777754 12.142857,53.076468
             C 13.903109,67.375181 22.857143,112.36218 22.857143,112.36218
             C 22.857143,112.36218 15.439177,64.949568 29.285714,65.933611
             C 43.132251,66.917654 57.142858,129.50504 57.142858,129.50504
             C 57.142858,129.50504 48.276474,80.59917 65.714286,75.219325
             C 83.152098,69.83948 114.28572,135.21933 111.42857,123.79075
             C 108.57143,112.36218 84.887052,76.371419 82.857143,60.933611
             C 80.827234,45.495803 91.272355,35.076041 88.571429,26.647897
             C 85.870503,18.219753 78.52223,11.993361 71.428572,9.5050398
             C 64.334914,7.0167188 53.721206,6.1127427 44.285715,7.362183 z"
         />
     </g>
     <g id="flame3">
       <path fill="#f3db1b" stroke="#000000"  
          d="M 34.908948,15.842559
             C 24.536318,22.871778 23.862981,20.556401 19.194662,33.335491
             C 14.416814,46.414407 5.0000001,130.93361 5.0000001,130.93361
             C 5.0000001,130.93361 15.439177,64.949568 29.285714,65.933611
             C 43.132251,66.917654 36.428572,102.36218 36.428572,102.36218
             C 36.428572,102.36218 48.276474,72.742027 65.714286,67.362182
             C 83.152098,61.982337 81.43842,79.824223 82.142856,88.076464
             C 88.839253,67.034613 71.969434,52.101962 71.313274,32.362183
             C 70.657115,12.622404 45.281577,8.8133395 34.908948,15.842559 z"
         />
     </g>
     <g id="planet">
       <!-- the planet is just a big circle with some craters drawn on it -->
       <path id="the-planet-itself" fill="#659a72" stroke="#000000"  
          d="M 711.42279,559.50388 C 711.42279,755.06959 552.70856,915.2193 357.14285,915.2193 C 161.57714,915.2193 2.8571472,756.4993 2.8571472,560.93359 C 2.8571472,365.36788 161.57714,206.64789 357.14285,206.64789 C 551.70371,206.64789 709.8525,364.94936 711.42279,559.50388 z"
         />
       <path id="crater-filler-1" fill="#659a72"  
          d="M 93.210334,321.98754 L 96.453561,323.21997 L 94.248167,325.3605 L 93.210334,321.98754 z"
         />
       <path id="crater-filler-2" fill="#659a72" 
          d="M 268.04179,212.91988 L 278.40754,218.79075 L 264.55596,223.37737 L 268.04179,212.91988 z"
         />
       <path id="crater-1" fill="#659a72" stroke="#000000"  
          d="M 296.81843,316.44258
             C 296.81843,329.6189 250.55769,340.40906 193.55577,340.40906
             C 136.55385,340.40906 90.291428,329.71523 90.291428,316.53891
             C 90.291428,303.36259 136.55385,292.66876 193.55577,292.66876
             C 250.2648,292.66876 296.36074,303.33438 296.81843,316.44258 z"
          transform="matrix(0.8474231,-0.5309182,0.5309182,0.8474231,-153.05378,99.167179)" />
       <path id="crater-2" fill="#659a72" stroke="#000000"  
          d="M 592.60182,290.53448
             C 592.60182,298.55485 576.56166,305.12276 556.79718,305.12276
             C 537.0327,305.12276 520.99196,298.61348 520.99196,290.59311
             C 520.99196,282.57274 537.0327,276.06345 556.79718,276.06345
             C 576.46011,276.06345 592.44312,282.55558 592.60182,290.53448 z"
          transform="matrix(0.9411886,0.3378815,-0.3378815,0.9411886,115.36455,-154.43599)" />
       <path d="M 91.732302,320.33841
             C 94.091869,324.12892 94.421265,328.79559 94.667736,333.18093
             C 95.698924,337.60932 93.131589,341.28514 92.466161,345.2896" />
       <path d="M 266.75754,209.89272
             C 268.50269,213.9022 273.87529,216.84469 278.06645,217.77482
             C 284.3153,218.32964 290.57711,218.28343 296.84573,218.33209" />
       <path d="M 507.4631,294.65337
             C 507.84188,296.1685 503.50403,297.55022 501.95916,298.32266
             C 500.80272,298.90088 497.78224,298.32266 496.45522,298.32266
             C 494.58036,298.32266 492.69736,298.30052 491.31821,297.95573
             C 491.0809,297.8964 490.82897,297.95573 490.58435,297.95573" />
       <path d="M 574.61114,319.60455
             C 574.47848,319.57139 574.67116,324.24777 574.97807,325.47542
             C 575.44198,327.33105 575.2672,329.20043 575.71193,330.97936
             C 576.24803,333.12375 579.86026,332.87006 581.21587,333.54786
             C 581.44357,333.66171 582.35848,333.54786 582.68358,333.54786" />
       <path d="M 496.08829,320.33841
             C 497.89792,321.24322 499.85013,319.44341 501.59223,318.13683
             C 503.61939,316.61646 505.2108,315.69514 505.99538,313.73368
             C 506.08623,313.50656 505.99538,313.24445 505.99538,312.99983" />
       <path d="M 548.55917,330.97936
             C 549.40777,328.85785 548.77812,335.96839 550.39381,337.58408
             C 552.88519,340.07546 555.53498,341.80446 558.83319,342.35416" />
       <path d="M 523.60798,295.38722
             C 523.76291,295.54216 523.24105,301.65756 523.24105,302.72581
             C 523.24105,304.14299 524.81637,304.82462 525.44263,305.29431" />
       <path d="M 562.86941,309.33053
             C 562.86941,309.81656 558.66679,313.53315 557.7324,314.46754
             C 557.14634,315.0536 553.15078,314.46754 552.22846,314.46754" />
       <path d="M 130.99373,289.88329
             C 129.09497,291.78204 135.31667,293.47805 137.96538,293.91951
             C 141.0387,294.43173 145.47344,296.33564 148.60633,297.5888" />
       <path d="M 230.79847,229.7069
             C 231.30123,229.908 231.1654,234.37013 231.1654,235.94469
             C 231.1654,238.14853 230.62546,240.69386 229.69769,242.54942
             C 228.76127,244.42224 228.02005,245.69477 227.12918,246.58564" />
       <path d="M 180.8961,257.96044
             C 179.96412,259.82441 182.38562,263.47529 184.56539,264.56517
             C 185.10446,264.83471 185.55756,265.06125 186.03311,265.29903" />
       <path d="M 130.6268,329.14471
             C 131.44394,329.55328 130.99373,338.84364 130.99373,339.41873
             C 130.99373,342.15657 130.46031,344.65542 129.15908,346.39038" />
       <path d="M 266.39061,244.75099
             C 271.06828,245.1408 278.83241,249.15414 285.83785,249.15414
             C 286.57171,249.15414 287.30557,249.15414 288.03943,249.15414" />
       <path d="M 187.86776,302.35888
             C 189.39286,303.32766 191.5651,305.77346 192.27091,308.59668
             C 193.10895,311.94884 195.60012,314.96875 196.30713,318.50376
             C 196.64561,320.19618 196.67406,321.86415 196.67406,323.64077" />
       <!-- this is the triangular object that sticks up -->
       <path fill="#659a72" stroke="#000000"  
          d="M 453.0139,232.47449
             C 455.62121,230.64639 463.08349,227.59405 467.02464,223.65291
             C 470.39444,220.28311 473.18051,216.97812 476.36513,213.7935
             C 479.46019,210.69844 481.41341,206.5905 483.62996,202.89626
             C 485.31693,200.08464 487.0896,196.89962 488.81912,194.5936
             C 491.41628,191.13072 490.1546,187.1075 494.00828,190.96118
             C 495.59019,192.54309 495.04612,196.43817 495.04612,198.74493
             C 495.04612,202.0314 495.04612,205.31787 495.04612,208.60434
             C 495.04612,211.89081 495.04612,215.17728 495.04612,218.46375
             C 495.04612,222.03989 495.56503,225.23481 495.56503,228.84207
             C 495.56503,232.03885 495.62468,235.28977 495.04612,238.18256
             C 494.46486,241.08885 494.91292,245.43353 495.56503,248.04197
             C 496.55503,252.00196 497.90874,252.1933 495.04612,252.1933
             C 490.83996,252.1933 487.95992,249.51365 484.14887,248.56089
             C 481.64526,247.93499 478.7365,247.2078 475.84621,246.48522
             C 472.26848,245.59079 469.69205,244.70088 469.1003,242.33389
             C 468.8731,241.42509 463.22836,238.70831 461.83548,237.66365
             C 460.05892,236.33123 457.91159,235.64484 455.60848,235.06907
             C 454.4219,234.77242 453.87876,233.33935 453.0139,232.47449 z"
         />
     </g>
     <g id="star">
        <path fill="#ffffff" d="M 1,1 L -1,1 L -1,-1 L 1,-1 z"/>
     </g>
  </defs>
  <g id="whole-scene">
    <g id="background">
      <!-- paint the entire background black -->
      <rect x="-240" y="0" width="960" height="640" fill="#000000"/>
      <!-- paint on a field of fainter background stars -->
      <!-- spaced to fill the viewBox -->
      <g id="stars-1">
        <use xlink:href="#star" transform="translate(50 50)"/>
        <use xlink:href="#star" transform="translate(5 600)"/>
        <use xlink:href="#star" transform="translate(68 346)"/>
        <use xlink:href="#star" transform="translate(456 500)"/>
        <use xlink:href="#star" transform="translate(333 111)"/>
        <use xlink:href="#star" transform="translate(351 253)"/>
        <use xlink:href="#star" transform="translate(400 98)"/>
        <use xlink:href="#star" transform="translate(111 333)"/>
        <use xlink:href="#star" transform="translate(120 437)"/>
        <use xlink:href="#star" transform="translate(298 267)"/>
        <use xlink:href="#star" transform="translate(12 185)"/>
        <use xlink:href="#star" transform="translate(283 573)"/>
        <use xlink:href="#star" transform="translate(366 44)"/>
        <use xlink:href="#star" transform="translate(50 555)"/>
        <!-- paint some on the edges -->
        <use xlink:href="#star" transform="translate(-235 140)"/>
        <use xlink:href="#star" transform="translate(560 50)"/>
        <use xlink:href="#star" transform="translate(680 427)"/>
        <use xlink:href="#star" transform="translate(703 505)"/>
        <use xlink:href="#star" transform="translate(-56 112)"/>
        <use xlink:href="#star" transform="translate(-22 429)"/>
        <use xlink:href="#star" transform="translate(-107 1)"/>
        <use xlink:href="#star" transform="translate(619 589)"/>
        <use xlink:href="#star" transform="translate(495 490)"/>
        <use xlink:href="#star" transform="translate(522 630)"/>
        <use xlink:href="#star" transform="translate(-99 15)"/>
        <use xlink:href="#star" transform="translate(-201 253)"/>
        <use xlink:href="#star" transform="translate(715 147)"/>
        <use xlink:href="#star" transform="translate(555 333)"/>
      </g>
      <!-- paint on a field of foreground stars (scaled to be larger) -->
      <!-- you might potentially add a motion animation to this set -->
      <!-- spaced to fill the viewBox after scaling -->
      <g id="stars-2" transform="scale(2)">
        <use xlink:href="#star" transform="translate(50 50)"/>
        <use xlink:href="#star" transform="translate(5 100)"/>
        <use xlink:href="#star" transform="translate(68 306)"/>
        <use xlink:href="#star" transform="translate(156 200)"/>
        <use xlink:href="#star" transform="translate(33 111)"/>
        <use xlink:href="#star" transform="translate(51 253)"/>
        <use xlink:href="#star" transform="translate(30 98)"/>
        <use xlink:href="#star" transform="translate(111 233)"/>
        <use xlink:href="#star" transform="translate(120 37)"/>
        <use xlink:href="#star" transform="translate(208 267)"/>
        <use xlink:href="#star" transform="translate(12 185)"/>
        <use xlink:href="#star" transform="translate(223 73)"/>
        <use xlink:href="#star" transform="translate(6 44)"/>
        <use xlink:href="#star" transform="translate(50 155)"/>
      </g>
      <g>
        <use xlink:href="#planet"/>
        <!-- the planet slides into view in time for the landing -->
        <animateTransform attributeName="transform" type="translate" 
                   values="0,1000;0,1000;-40,250" keyTimes="0;0.75;1"
                   dur="10s" fill="freeze" repeatCount="1"/>
      </g>
    </g>
    <g id="spaceship">
      <!-- the entire spaceship is rotated by 90% so that the rotate(auto) -->
      <!-- of the animateMotion element will cause the spaceship to point -->
      <!-- in the direction of the path of motion -->
      <g transform="rotate(90)">
        <!-- two of the four rocket engines are behind the main hull -->
        <g id="nacelle-3">
          <!-- the engines are just the same shape as the hull, scaled by half -->
          <g transform="scale(.5)">
            <g transform="translate(-226.07577 -37.878232 )">
              <use xlink:href="#mainhull"/>
            </g>
          </g>
          <!-- the flame is translated into position below the engine -->
          <!-- after the distorting animations are performed. -->
          <g id="flames-3" transform="translate(-45 260)">
            <!-- each flame layer is animated individually -->
            <g>
              <use xlink:href="#flame1"/>
              <animateTransform attributeName="transform" type="skewX" 
                   values="0;20;-45;0" keyTimes="0;0.33;0.66;1"
                   dur="1s" fill="remove" repeatCount="15"/>
            </g>
            <g>
              <use xlink:href="#flame2"/>
              <animateTransform attributeName="transform" type="scale" 
                   values="1,1;1.5,0.75;1,1.75;2,2;1,1"
                   keyTimes="0;0.25;0.5;0.75;1"
                   dur="1s" fill="remove" repeatCount="15"/>
            </g>
            <g>
              <use xlink:href="#flame3"/>
              <animateTransform attributeName="transform" type="skewY" 
                   values="0;60;15;20;0" keyTimes="0;0.25;0.5;0.75;1"
                   dur="1s" fill="remove" repeatCount="15"/>
            </g>
            <!-- the flames must disappear after the spaceship lands -->
            <set attributeName="visibility" to="hidden" begin="15s"/>
          </g>
          <g id="bar-3">
            <!-- the bar holding the engine to the hull is a quadrilateral -->
            <!-- which is scaled in the X-direction so that it appears to turn -->
            <path d="M 110,0 L 125,50 L 55,75 L 50,50 z"
                fill="#bbbbbb" stroke="#000000" />
            <animateTransform attributeName="transform" type="scale"
                from="1,1" to="0.05,1" dur="1s" fill="freeze" repeatCount="10.5"/>
          </g>
          <!-- the entire engine (including bar and flame) follows -->
          <!-- an elliptical path around the main hull -->
          <animateMotion 
              path="M 14.529648,420.32217
                   C 14.529648,388.81358 108.91429,363.24139 225.20966,363.24139"
              dur="1s" fill="freeze" repeatCount="10.5"/>
         </g>
         <g id="nacelle-4">
           <g transform="scale(.5)">
             <g transform="translate(-226.07577 -37.878232 )">
               <use xlink:href="#mainhull"/>
             </g>
           </g>
           <g id="flames-4" transform="translate(-45 260)">
             <g>
               <use xlink:href="#flame1"/>
               <animateTransform attributeName="transform" type="skewY" 
                   values="0;60;15;20;0" keyTimes="0;0.25;0.5;0.75;1"
                   dur="1s" fill="remove" repeatCount="15"/>
             </g>
             <g>
               <use xlink:href="#flame2"/>
               <animateTransform attributeName="transform" type="scale" 
                   values="1,1;1.5,0.75;1,1.75;1,1" keyTimes="0;0.33;0.66;1"
                   dur="1s" fill="remove" repeatCount="15"/>
             </g>
             <g>
               <use xlink:href="#flame3"/>
               <animateTransform attributeName="transform" type="skewX" 
                   values="0;60;-20;45;0" keyTimes="0;0.25;0.5;0.75;1"
                   dur="1s" fill="remove" repeatCount="15"/>
             </g>
             <set attributeName="visibility" to="hidden" begin="15s"/>
          </g>
          <g id="bar-4">
            <path d="M -108,0 L -123,50 L -55,75 L -50,50 z"
               fill="#666666" stroke="#000000" />
            <animateTransform attributeName="transform" type="scale"
               from="0.05,1" to="1,1" dur="1s" fill="freeze" repeatCount="10.5"/>
          </g>
          <animateMotion
             path="M 225.20966,363.24139
                   C 338.591,363.24139 435.74974,388.50383 435.80808,419.19913"
             dur="1s" fill="freeze" repeatCount="10.5"/>
        </g>
        <g id="hull">
          <!-- the main hull itself doesn't have any separate animation -->
          <use xlink:href="#mainhull"/>
        </g>
        <g id="window">
          <!-- the window is two concentric ellipses -->
          <g>
            <path fill="#666666" stroke="#000000"  
              d="M 52.342524,249.14996
                 C 52.342524,285.47603 28.437894,314.95808 -1.016016,314.95808
                 C -30.469926,314.95808 -54.374546,285.47603 -54.374546,249.14996
                 C -54.374546,212.82387 -30.469926,183.34183 -1.016016,183.34183
                 C 28.357674,183.34183 52.216364,212.64161 52.342034,248.86842"
              />
            <!-- the window pane is grouped separately because it has a transformation -->
            <!-- it darkens as the window turns towards the shadow -->
            <g id="pane">
              <path d="M 41.468204,249.92805
                      C 41.468204,279.47839 22.504994,303.46127 -0.860386,303.46127
                      C -24.225766,303.46127 -43.188976,279.47839 -43.188976,249.92805
                      C -43.188976,220.37771 -24.225766,196.39483 -0.860386,196.39483
                      C 22.441354,196.39483 41.368124,220.22944 41.467814,249.69903"
                />
              <animateColor attributeName="fill" values="#ffffff;#ffffff;#666666"
                 keyTimes="0;0.5;1" dur="1s" fill="freeze" repeatCount="10.5"/>
            </g>
            <!-- the motion and width scaling are computed according to a spline -->
            <!-- to give the illusin of a circular path -->
            <animateTransform attributeName="transform" type="scale"
                values="0.05,1;1,1;0.05,1" calcMode="spline"
                keySplines="0 .75 .25 1; .75 0 1 .25"
                dur="1s" fill="freeze" repeatCount="10.5"/>
          </g>
          <animateMotion path="M 350,0 L 225,0 L 100,0"
              calcMode="spline" keySplines="0 .1 .9 1; .1 0 1 .9"
              dur="1s" fill="freeze" repeatCount="10.5"/>
        </g>
        <g id="nacelle-1">
          <!-- for the front engines the bar is drawn first -->
          <!-- because it appears behind the engine -->
          <g id="bar-1">
            <path fill="#666666" stroke="#000000"
                 d="M -108,0 L -123,50 L -55,75 L -50,50 z" />
            <animateTransform attributeName="transform" type="scale" from="1,1"
                 to="0.05,1" dur="1s" fill="freeze" repeatCount="10.5"/>
          </g>
          <g transform="scale(.5)">
            <g transform="translate(-226.07577 -37.878232 )">
              <use xlink:href="#mainhull"/>
            </g>
          </g>
          <g id="flames-1" transform="translate(-45 260)">
            <g>
              <use xlink:href="#flame1"/>
              <animateTransform attributeName="transform" type="skewY" 
                   values="0;60;15;0" keyTimes="0;0.33;0.66;1"
                   dur="1s" fill="remove" repeatCount="15"/>
            </g>
            <g>
              <use xlink:href="#flame2"/>
              <animateTransform attributeName="transform" type="skewX" 
                   values="0;-30;20;45;0" keyTimes="0;0.25;0.5;0.75;1"
                   dur="1s" fill="remove" repeatCount="15"/>
            </g>
            <g>
              <use xlink:href="#flame3"/>
              <animateTransform attributeName="transform" type="scale" 
                   values="1,1;1,1.75;2,0.75;1,1" keyTimes="0;0.33;0.66;1"
                   dur="1s" fill="remove" repeatCount="15"/>
            </g>
            <set attributeName="visibility" to="hidden" begin="15s"/>
          </g>
          <animateMotion path="M 435.80808,419.19913
            C 435.80808,450.70773 341.50502,477.40296 225.20966,477.40296"
            dur="1s" fill="freeze" repeatCount="10.5"/>
        </g>
        <g id="nacelle-2">
          <g id="bar-2">
            <path d="M 110,0 L 125,50 L 55,75 L 50,50 z"
                 fill="#bbbbbb" stroke="#000000" />
            <animateTransform attributeName="transform" type="scale" from="0.05,1"
                 to="1,1" dur="1s" fill="freeze" repeatCount="10.5"/>
          </g>
          <g transform="scale(.5)">
            <g transform="translate(-226.07577 -37.878232 )">
              <use xlink:href="#mainhull"/>
            </g>
          </g>
          <g id="flames-2" transform="translate(-45 260)">
            <g>
              <use xlink:href="#flame1"/>
              <animateTransform attributeName="transform" type="skewX" 
                   values="0;-60;20;45;0" keyTimes="0;0.25;0.5;0.75;1"
                   dur="1s" fill="remove" repeatCount="15"/>
            </g>
            <g>
              <use xlink:href="#flame2"/>
              <animateTransform attributeName="transform" type="skewY" 
                   values="0;60;20;0" keyTimes="0;0.33;0.66;1"
                   dur="1s" fill="remove" repeatCount="15"/>
            </g>
            <g>
              <use xlink:href="#flame3"/>
              <animateTransform attributeName="transform" type="scale" 
                   values="1,1;1.5,0.75;1,1.75;2,2;1,1" keyTimes="0;0.25;0.5;0.75;1"
                   dur="1s" fill="remove" repeatCount="15"/>
            </g>
            <set attributeName="visibility" to="hidden" begin="15s"/>
          </g>
          <animateMotion path="M 225.20966,477.40296
               C 108.91429,477.40296 14.529648,451.83077 14.529648,420.32217"
               dur="1s" fill="freeze" repeatCount="10.5"/>
        </g>
      </g>
      <!-- the whole spaceship grows as it travels -->
      <animateTransform attributeName="transform" type="scale" values="0.1;0.25;0.5"
          keyTimes="0;0.66;1" dur="15s" fill="freeze" repeatCount="1"/>
      <!-- the spaceship flies along this curve -->
      <!--<animateMotion path="M 240 640 
          C 240 480 180 540 120 480 C 60 420 60 380 120 320 C 180 260 240 320 240 160"
          rotate="auto" dur="10s" fill="freeze" repeatCount="1"/>-->
      <animateMotion path="M -47.685323,118.797
          C -8.6903733,199.6092 35.366396,272.0702 81.614203,290.70558
          C 128.73236,309.69166 240,320 240,160"
          rotate="auto" dur="10s" fill="freeze" repeatCount="1"/>
      <!-- the landing is given as a separate animate command -->
      <!-- because the orientation changes. -->
      <!-- it flies nose-first and lands feet-first -->
      <animateMotion path="M 240 160 L 240 240" begin="10s"
          rotate="270" dur="5s" fill="freeze" repeatCount="1"/>
    </g>
  </g>
</svg>
